<?xml version="1.0" encoding="iso-8859-1"?>
<!-- Uploaded to: SVG Repo, www.svgrepo.com, Generator: SVG Repo Mixer Tools -->
<svg version="1.1" id="Layer_1" xmlns="http://www.w3.org/2000/svg" xmlns:xlink="http://www.w3.org/1999/xlink" 
	 viewBox="0 0 512 512" xml:space="preserve">
<path style="fill:#D6374C;" d="M362.743,173.343h-25.541V88.807c0-44.847-36.355-81.202-81.202-81.202s-81.202,36.356-81.202,81.202
	v84.536h-25.541c-35.836,0-64.887,29.051-64.887,64.887v199.133h60.362v43.715c0,12.879,10.44,23.319,23.319,23.319h175.899
	c12.879,0,23.319-10.44,23.319-23.319v-43.715h60.362V238.23C427.631,202.394,398.579,173.343,362.743,173.343z"/>
<path style="fill:#F4ABBE;" d="M404.819,238.23h-15.208c0-14.815-12.053-26.867-26.867-26.867v-15.208
	C385.944,196.155,404.819,215.03,404.819,238.23z"/>
<path style="fill:#249189;" d="M306.786,173.343V88.806c0-28.004-22.783-50.786-50.786-50.786s-50.786,22.782-50.786,50.786v84.537
	L306.786,173.343L306.786,173.343z"/>
<g>
	<path style="fill:#F2962E;" d="M336.852,473.98v-77.705c-26.94-4.793-47.401-28.314-47.401-56.631h-66.903
		c0,28.317-20.461,51.839-47.401,56.631v77.705H336.852z"/>
	<rect x="84.374" y="437.36" style="fill:#F2962E;" width="60.365" height="33.915"/>
	<rect x="367.271" y="437.36" style="fill:#F2962E;" width="60.365" height="33.915"/>
</g>
<g>
	<path style="fill:#7A1B2E;" d="M362.743,165.739h-17.937V88.806C344.806,39.839,304.967,0,256,0s-88.806,39.839-88.806,88.806
		v76.933h-17.937c-39.971,0-72.491,32.52-72.491,72.491v191.529v15.208v33.914h60.362v2.197c0,17.05,13.872,30.923,30.923,30.923
		h175.899c17.051,0,30.923-13.873,30.923-30.923v-2.197h60.362v-33.914v-15.208V238.23
		C435.234,198.259,402.715,165.739,362.743,165.739z M91.973,463.672v-18.706h45.154v2.535v16.171H91.973z M420.027,463.672h-45.154
		v-18.706h45.154V463.672z M374.872,429.759V251.279h-15.208v178.479v7.604v41.518v2.197c0,8.665-7.049,15.715-15.715,15.715
		H168.051c-8.665,0-15.715-7.049-15.715-15.715v-2.197v-31.379v-17.743V251.279h-15.208v178.479H91.973V238.23
		c0-31.586,25.697-57.283,57.283-57.283h33.145V88.806c0-40.583,33.016-73.598,73.598-73.598c40.582,0,73.598,33.015,73.598,73.598
		v92.141h33.145c31.586,0,57.283,25.697,57.283,57.283v191.529H374.872z"/>
	<path style="fill:#7A1B2E;" d="M314.39,88.806c0-32.196-26.194-58.39-58.39-58.39c-32.196,0-58.39,26.194-58.39,58.39v92.141
		h116.782V88.806H314.39z M299.182,165.739h-86.366V88.806c0.001-23.812,19.373-43.182,43.183-43.182
		c23.811,0,43.182,19.371,43.182,43.182V165.739z"/>
	<path style="fill:#7A1B2E;" d="M197.61,236.121v53.336h15.208v-53.336c7.706-3.044,13.18-10.549,13.18-19.324
		c0-11.461-9.323-20.784-20.784-20.784c-11.461,0-20.784,9.323-20.784,20.784C184.43,225.572,189.903,233.078,197.61,236.121z
		 M205.214,211.221c3.075,0,5.576,2.501,5.576,5.576c0,3.075-2.501,5.576-5.576,5.576c-3.075,0-5.576-2.501-5.576-5.576
		C199.637,213.722,202.139,211.221,205.214,211.221z"/>
	<path style="fill:#7A1B2E;" d="M286.002,216.797c0,8.775,5.474,16.28,13.18,19.324v78.345h15.208v-78.345
		c7.706-3.044,13.18-10.549,13.18-19.324c0-11.461-9.323-20.784-20.784-20.784C295.326,196.013,286.002,205.336,286.002,216.797z
		 M312.363,216.797c0,3.075-2.501,5.576-5.576,5.576c-3.075,0-5.576-2.501-5.576-5.576c0-3.075,2.501-5.576,5.576-5.576
		C309.861,211.221,312.363,213.722,312.363,216.797z"/>
	<path style="fill:#7A1B2E;" d="M297.055,339.644v-7.604h-82.111v7.604c0,24.236-17.297,44.905-41.128,49.145l-6.273,1.116v91.679
		h44.86v-15.208h-29.652v-64.051c25.392-7.135,43.923-28.932,46.962-55.078h52.573c3.04,26.146,21.57,47.943,46.962,55.078v64.051
		h-96.567v15.208h111.776v-91.68l-6.273-1.116C314.353,384.548,297.055,363.88,297.055,339.644z"/>
</g>
</svg>