<?xml version="1.0" encoding="UTF-8" standalone="no"?>
<!-- Created with Inkscape (http://www.inkscape.org/) -->

<svg
   width="182.74281mm"
   height="182.74281mm"
   viewBox="0 0 182.74281 182.74281"
   version="1.1"
   id="svg1"
   xml:space="preserve"
   sodipodi:docname="git-icon.svg"
   inkscape:version="1.4 (e7c3feb1, 2024-10-09)"
   xmlns:inkscape="http://www.inkscape.org/namespaces/inkscape"
   xmlns:sodipodi="http://sodipodi.sourceforge.net/DTD/sodipodi-0.dtd"
   xmlns="http://www.w3.org/2000/svg"
   xmlns:svg="http://www.w3.org/2000/svg"><sodipodi:namedview
     id="namedview1"
     pagecolor="#ffffff"
     bordercolor="#000000"
     borderopacity="0.25"
     inkscape:showpageshadow="2"
     inkscape:pageopacity="0.0"
     inkscape:pagecheckerboard="0"
     inkscape:deskcolor="#d1d1d1"
     inkscape:document-units="mm"
     inkscape:zoom="0.78216891"
     inkscape:cx="352.86496"
     inkscape:cy="383.54887"
     inkscape:window-width="1200"
     inkscape:window-height="1027"
     inkscape:window-x="0"
     inkscape:window-y="25"
     inkscape:window-maximized="0"
     inkscape:current-layer="svg1" /><defs
     id="defs1" /><g
     id="layer1"
     transform="translate(-11.481224,-46.881676)"><circle
       style="fill:#ffffff;stroke:none;stroke-width:4.34956;stroke-linecap:round;stroke-linejoin:round;paint-order:markers stroke fill"
       id="path3"
       cx="102.85263"
       cy="138.25308"
       r="91.371407" /><path
       style="fill:#000000;stroke-width:1.00543"
       d="M 72.820695,221.49356 C 51.253005,213.63481 33.654717,198.12245 23.384122,177.91672 14.739651,160.91013 11.885726,140.82044 15.395904,121.68508 18.576112,104.34851 27.237536,87.942276 39.808246,75.443906 c 14.510789,-14.42729 32.100799,-22.96492 52.72705,-25.59203 4.473034,-0.56972 17.155044,-0.48367 21.714634,0.14734 16.57041,2.29319 31.21787,8.50488 44.14357,18.72038 3.96821,3.13617 10.43359,9.53245 13.54015,13.39545 17.53301,21.802194 23.77028,49.764464 17.1828,77.032224 -6.79924,28.1444 -27.64151,51.52862 -55.14908,61.87519 -3.0437,1.14484 -3.79148,1.32402 -5.08336,1.21804 -1.75701,-0.14414 -2.84214,-0.81913 -3.56203,-2.21573 -0.45647,-0.88555 -0.49992,-2.23697 -0.50376,-15.66659 -0.004,-13.36686 -0.0537,-14.93483 -0.55118,-17.3196 -0.65033,-3.11759 -2.32421,-6.71406 -4.00296,-8.60069 l -1.17905,-1.32505 0.93964,-0.15124 c 8.76732,-1.41112 10.20505,-1.73533 14.79702,-3.33675 2.95829,-1.03169 6.97679,-3.00162 9.28535,-4.55183 2.45676,-1.64972 6.43597,-5.54152 8.08498,-7.90735 4.16987,-5.98258 6.45208,-13.25544 7.20039,-22.94597 0.86807,-11.24134 -1.60403,-19.94712 -7.75402,-27.30667 l -1.08927,-1.3035 0.7492,-2.79482 c 0.64468,-2.40489 0.75326,-3.40605 0.77833,-7.175797 0.0216,-3.246897 -0.10417,-4.993717 -0.48584,-6.748037 -0.77499,-3.56219 -1.85967,-6.73859 -2.36684,-6.93111 -1.34076,-0.50896 -5.3369,0.0919 -9.30491,1.39918 -2.92762,0.9645 -8.90317,3.92731 -12.17402,6.03616 l -2.64802,1.70728 -2.9235,-0.67514 c -6.6137,-1.52733 -12.13511,-2.13705 -19.35235,-2.13705 -7.154302,0 -13.447551,0.70905 -19.857166,2.2373 l -2.285464,0.54492 -3.428914,-2.08071 c -3.766703,-2.28569 -9.044238,-4.87487 -11.714764,-5.74732 -3.606495,-1.17822 -8.289838,-1.81007 -9.181239,-1.23867 -0.178173,0.11421 -0.651075,1.23457 -1.050893,2.48969 -2.100992,6.59548 -2.348125,12.890674 -0.738524,18.812284 l 0.586374,2.15723 -1.881116,2.50638 c -3.405941,4.53804 -5.660433,9.70795 -6.56874,15.06314 -0.583433,3.43981 -0.589377,10.54275 -0.01246,14.8963 1.418448,10.70405 4.424193,17.38621 10.543562,23.4397 4.990392,4.93667 10.685218,7.9346 18.735332,9.86285 2.463796,0.59015 4.202614,0.90292 9.650521,1.73588 l 0.939646,0.14367 -1.163678,1.30778 c -1.597273,1.79506 -3.027124,4.78969 -3.814866,7.98972 l -0.660985,2.68511 -1.834226,0.65481 c -3.222478,1.15042 -5.817919,1.54609 -9.112336,1.38915 -6.234884,-0.29702 -10.491034,-2.91638 -14.44232,-8.88821 -2.393511,-3.61746 -3.893202,-5.24844 -6.275038,-6.82436 -3.091765,-2.04563 -4.924442,-2.6745 -7.874223,-2.70196 -2.667974,-0.0248 -3.9881,0.48111 -3.9881,1.52849 0,0.80979 1.491299,2.34893 3.659351,3.77674 3.871425,2.54961 6.605132,6.01559 9.099857,11.53744 1.87257,4.14477 2.674791,5.324 5.145335,7.56343 2.226385,2.01812 5.419356,3.68317 8.810178,4.59429 1.933539,0.51954 3.034201,0.61313 7.142972,0.6074 3.261737,-0.005 5.561112,-0.15123 7.000114,-0.44655 1.17859,-0.24188 2.164771,-0.42012 2.191513,-0.39609 0.02674,0.024 0.09103,4.04972 0.142859,8.94596 0.08983,8.48583 0.06751,8.94705 -0.477199,9.85955 -1.257275,2.10622 -3.693828,2.50686 -7.285832,1.19802 z"
       id="path2" /></g></svg>
