<?xml version="1.0" encoding="UTF-8" standalone="no"?> <svg width="64" height="64" viewBox="0 0 64 64" fill="none" xmlns="http://www.w3.org/2000/svg">
<path d="M30 9V13L21.42 12.14C21.019 12.0995 20.6489 11.9067 20.3858 11.6014C20.1228 11.296 19.9868 10.9014 20.0061 10.4989C20.0253 10.0963 20.1982 9.71647 20.4892 9.43761C20.7801 9.15875 21.167 9.00212 21.57 9H30Z" fill="#1E81CE"/>
<path d="M44 10.57C44.0009 10.9614 43.8559 11.3391 43.5934 11.6294C43.3308 11.9197 42.9695 12.1017 42.58 12.14L34 13V9H42.43C42.8457 9.00236 43.2436 9.16853 43.5375 9.46245C43.8315 9.75637 43.9976 10.1543 44 10.57Z" fill="#1E81CE"/>
<path d="M26 16V21L4.43 19.12C4.02859 19.0847 3.6563 18.8958 3.39085 18.5926C3.1254 18.2895 2.98729 17.8955 3.00536 17.4929C3.02342 17.0904 3.19626 16.7104 3.4878 16.4322C3.77933 16.154 4.16704 15.9992 4.57 16H26Z" fill="#3D9AE2"/>
<path d="M61 17.57C60.9995 17.9606 60.8523 18.3369 60.5874 18.624C60.3225 18.9111 59.9593 19.0881 59.57 19.12L38 21V16H59.43C59.6363 15.9995 59.8407 16.0397 60.0314 16.1184C60.2222 16.1972 60.3954 16.3128 60.5413 16.4587C60.6872 16.6046 60.8029 16.7778 60.8816 16.9686C60.9603 17.1593 61.0005 17.3637 61 17.57Z" fill="#3D9AE2"/>
<path d="M34.25 4.97999L35 11H29L29.75 4.97999C29.8194 4.43225 30.0863 3.92864 30.5005 3.5636C30.9147 3.19856 31.4479 2.99716 32 2.99716C32.5521 2.99716 33.0853 3.19856 33.4995 3.5636C33.9137 3.92864 34.1806 4.43225 34.25 4.97999Z" fill="#3D9AE2"/>
<path d="M50 26C52.2091 26 54 24.2091 54 22C54 19.7909 52.2091 18 50 18C47.7909 18 46 19.7909 46 22C46 24.2091 47.7909 26 50 26Z" fill="#1E81CE"/>
<path d="M14 26C16.2091 26 18 24.2091 18 22C18 19.7909 16.2091 18 14 18C11.7909 18 10 19.7909 10 22C10 24.2091 11.7909 26 14 26Z" fill="#1E81CE"/>
<path d="M32 26C36.4183 26 40 22.4183 40 18C40 13.5817 36.4183 10 32 10C27.5817 10 24 13.5817 24 18C24 22.4183 27.5817 26 32 26Z" fill="#5AAAE7"/>
<path d="M32 22C33.1046 22 34 21.1046 34 20C34 18.8954 33.1046 18 32 18C30.8954 18 30 18.8954 30 20C30 21.1046 30.8954 22 32 22Z" fill="#3D9AE2"/>
<path d="M26 36V40L22 44V48L18 52H15V55L20 60V61H8.76C7.33375 55.4708 7.92561 49.6143 10.4293 44.4823C12.933 39.3503 17.1844 35.2791 22.42 33H23L26 36Z" fill="#00CCB3"/>
<path d="M38 49V52L36 54H34V50L32 48V46H38V49Z" fill="#00CCB3"/>
<path d="M56 55C55.9982 57.0239 55.7429 59.0396 55.24 61H46L43 58V54L45 52V46L40 41H35L31 37V31.02C31.33 31.01 31.66 31 32 31C38.3647 31.0016 44.4683 33.5307 48.9688 38.0312C53.4693 42.5317 55.9984 48.6353 56 55Z" fill="#00CCB3"/>
<path d="M43 58V54L45 52V46L40 41H35L31 37V31.02C28.042 31.1425 25.1326 31.8139 22.42 33H23L26 36V40L22 44V48L18 52H15V55L20 60V61H46L43 58ZM38 52L36 54H34V50L32 48V46H38V52Z" fill="#3D9AE2"/>
<path d="M32 17C31.4067 17 30.8266 17.1759 30.3333 17.5056C29.8399 17.8352 29.4554 18.3038 29.2284 18.8519C29.0013 19.4001 28.9419 20.0033 29.0576 20.5853C29.1734 21.1672 29.4591 21.7018 29.8787 22.1213C30.2982 22.5409 30.8328 22.8266 31.4147 22.9424C31.9967 23.0581 32.5999 22.9987 33.148 22.7716C33.6962 22.5446 34.1648 22.1601 34.4944 21.6667C34.8241 21.1734 35 20.5933 35 20C35 19.2044 34.6839 18.4413 34.1213 17.8787C33.5587 17.3161 32.7957 17 32 17ZM32 21C31.8022 21 31.6089 20.9414 31.4444 20.8315C31.28 20.7216 31.1518 20.5654 31.0761 20.3827C31.0004 20.2 30.9806 19.9989 31.0192 19.8049C31.0578 19.6109 31.153 19.4327 31.2929 19.2929C31.4327 19.153 31.6109 19.0578 31.8049 19.0192C31.9989 18.9806 32.2 19.0004 32.3827 19.0761C32.5654 19.1518 32.7216 19.28 32.8315 19.4444C32.9414 19.6089 33 19.8022 33 20C33 20.2652 32.8946 20.5196 32.7071 20.7071C32.5196 20.8946 32.2652 21 32 21Z" fill="black"/>
<path d="M31.758 13.03L27.758 14.03L28.242 15.97L32 15.031L35.758 15.97L36.242 14.03L32.242 13.03C32.0831 12.99 31.9168 12.99 31.758 13.03Z" fill="black"/>
<path d="M59.43 15H40.47C40.2779 14.4543 40.0334 13.9285 39.74 13.43L42.68 13.14C43.3387 13.0762 43.9477 12.7613 44.3805 12.2606C44.8133 11.7599 45.0368 11.1119 45.0046 10.4508C44.9725 9.78981 44.6871 9.16651 44.2078 8.7102C43.7284 8.25388 43.0918 7.99957 42.43 7.99999H35.64L35.24 4.85999C35.1417 4.07 34.7581 3.34314 34.1614 2.81613C33.5648 2.28912 32.7961 1.99826 32 1.99826C31.2039 1.99826 30.4353 2.28912 29.8386 2.81613C29.2419 3.34314 28.8583 4.07 28.76 4.85999L28.36 7.99999H21.57C20.9082 7.99957 20.2716 8.25388 19.7922 8.7102C19.3129 9.16651 19.0276 9.78981 18.9954 10.4508C18.9632 11.1119 19.1868 11.7599 19.6196 12.2606C20.0524 12.7613 20.6613 13.0762 21.32 13.14L24.26 13.43C23.9666 13.9285 23.7221 14.4543 23.53 15H4.57001C3.90901 14.999 3.27315 15.2533 2.79505 15.7097C2.31694 16.1662 2.0335 16.7895 2.00384 17.4499C1.97417 18.1102 2.20058 18.7565 2.63583 19.254C3.07109 19.7515 3.68159 20.0617 4.34001 20.12L9.24001 20.54C9.08907 21.0123 9.00821 21.5042 9.00001 22C9.00001 23.3261 9.52679 24.5978 10.4645 25.5355C11.4022 26.4732 12.6739 27 14 27C15.3261 27 16.5979 26.4732 17.5355 25.5355C18.4732 24.5978 19 23.3261 19 22C18.9904 21.7958 18.9704 21.5922 18.94 21.39L23.86 21.81C24.5815 23.3606 25.7309 24.6729 27.173 25.5925C28.615 26.512 30.2897 27.0005 32 27.0005C33.7103 27.0005 35.385 26.512 36.8271 25.5925C38.2691 24.6729 39.4185 23.3606 40.14 21.81L45.06 21.39C45.0296 21.5922 45.0096 21.7958 45 22C45 23.3261 45.5268 24.5978 46.4645 25.5355C47.4022 26.4732 48.6739 27 50 27C51.3261 27 52.5979 26.4732 53.5355 25.5355C54.4732 24.5978 55 23.3261 55 22C54.9918 21.5042 54.9109 21.0123 54.76 20.54L59.66 20.12C60.3184 20.0617 60.9289 19.7515 61.3642 19.254C61.7994 18.7565 62.0258 18.1102 61.9962 17.4499C61.9665 16.7895 61.6831 16.1662 61.205 15.7097C60.7269 15.2533 60.091 14.999 59.43 15ZM14 25C13.4067 25 12.8266 24.824 12.3333 24.4944C11.84 24.1648 11.4554 23.6962 11.2284 23.148C11.0013 22.5999 10.9419 21.9967 11.0577 21.4147C11.1734 20.8328 11.4591 20.2982 11.8787 19.8787C12.2982 19.4591 12.8328 19.1734 13.4147 19.0576C13.9967 18.9419 14.5999 19.0013 15.1481 19.2284C15.6962 19.4554 16.1648 19.8399 16.4944 20.3333C16.8241 20.8266 17 21.4066 17 22C16.9976 22.7949 16.6808 23.5566 16.1187 24.1187C15.5566 24.6808 14.7949 24.9976 14 25ZM18.21 19.32C17.8019 18.6717 17.2493 18.1266 16.5955 17.7274C15.9417 17.3282 15.2044 17.0857 14.4413 17.0189C13.6782 16.9521 12.9099 17.0628 12.1967 17.3423C11.4835 17.6217 10.8446 18.0625 10.33 18.63L4.52001 18.12C4.37932 18.1126 4.24687 18.0513 4.15008 17.9489C4.05329 17.8466 3.99956 17.7109 4.00001 17.57C3.99907 17.4949 4.01317 17.4203 4.04148 17.3508C4.0698 17.2812 4.11175 17.218 4.16487 17.1648C4.21798 17.1117 4.28119 17.0698 4.35077 17.0415C4.42035 17.0132 4.4949 16.9991 4.57001 17H23.06C23.0198 17.3318 22.9998 17.6658 23 18C23.0006 18.5874 23.0575 19.1734 23.17 19.75L18.21 19.32ZM42.43 9.99999C42.5788 9.99945 42.722 10.0565 42.8297 10.1592C42.9374 10.2619 43.0011 10.4023 43.0076 10.551C43.014 10.6996 42.9627 10.845 42.8644 10.9567C42.766 11.0683 42.6283 11.1376 42.48 11.15L38.28 11.57C37.6389 10.9371 36.9035 10.4074 36.1 9.99999H42.43ZM30.74 5.09999C30.7821 4.79573 30.9329 4.51698 31.1645 4.31521C31.3961 4.11345 31.6929 4.0023 32 4.0023C32.3072 4.0023 32.604 4.11345 32.8356 4.31521C33.0671 4.51698 33.2179 4.79573 33.26 5.09999L33.77 9.17999C32.6022 8.94001 31.3978 8.94001 30.23 9.17999L30.74 5.09999ZM21.52 11.15C21.3717 11.1376 21.234 11.0683 21.1357 10.9567C21.0373 10.845 20.986 10.6996 20.9925 10.551C20.9989 10.4023 21.0627 10.2619 21.1703 10.1592C21.278 10.0565 21.4212 9.99945 21.57 9.99999H27.9C27.0965 10.4074 26.3611 10.9371 25.72 11.57L21.52 11.15ZM32 25C30.6155 25 29.2622 24.5894 28.111 23.8203C26.9599 23.0511 26.0627 21.9579 25.5329 20.6788C25.003 19.3997 24.8644 17.9922 25.1345 16.6344C25.4046 15.2765 26.0713 14.0292 27.0503 13.0502C28.0292 12.0713 29.2765 11.4046 30.6344 11.1345C31.9922 10.8644 33.3997 11.003 34.6788 11.5328C35.9579 12.0626 37.0511 12.9599 37.8203 14.111C38.5895 15.2621 39 16.6155 39 18C38.9979 19.8559 38.2597 21.6351 36.9474 22.9474C35.6351 24.2597 33.8559 24.9979 32 25ZM50 25C49.4067 25 48.8266 24.824 48.3333 24.4944C47.84 24.1648 47.4554 23.6962 47.2284 23.148C47.0013 22.5999 46.9419 21.9967 47.0577 21.4147C47.1734 20.8328 47.4591 20.2982 47.8787 19.8787C48.2983 19.4591 48.8328 19.1734 49.4147 19.0576C49.9967 18.9419 50.5999 19.0013 51.1481 19.2284C51.6962 19.4554 52.1648 19.8399 52.4944 20.3333C52.8241 20.8266 53 21.4066 53 22C52.9976 22.7949 52.6808 23.5566 52.1187 24.1187C51.5566 24.6808 50.7949 24.9976 50 25ZM59.48 18.12L53.67 18.63C53.1555 18.0625 52.5166 17.6217 51.8033 17.3423C51.0901 17.0628 50.3219 16.9521 49.5587 17.0189C48.7956 17.0857 48.0583 17.3282 47.4045 17.7274C46.7507 18.1266 46.1981 18.6717 45.79 19.32L40.83 19.75C40.9425 19.1734 40.9994 18.5874 41 18C41.0003 17.6658 40.9802 17.3318 40.94 17H59.43C59.5051 16.9991 59.5797 17.0132 59.6492 17.0415C59.7188 17.0698 59.782 17.1117 59.8352 17.1648C59.8883 17.218 59.9302 17.2812 59.9585 17.3508C59.9869 17.4203 60.001 17.4949 60 17.57C60.0005 17.7109 59.9467 17.8466 59.8499 17.9489C59.7532 18.0513 59.6207 18.1126 59.48 18.12Z" fill="black"/>
<path d="M15 21H13V23H15V21Z" fill="black"/>
<path d="M51 21H49V23H51V21Z" fill="black"/>
<path d="M32 30C28.1851 30.002 24.4212 30.8765 20.9962 32.5568C17.5712 34.237 14.576 36.6784 12.2396 39.6942C9.90322 42.71 8.28762 46.2202 7.51639 49.9564C6.74517 53.6925 6.83877 57.5556 7.79002 61.25C7.84552 61.4649 7.97096 61.6553 8.14658 61.7911C8.32221 61.9269 8.53802 62.0004 8.76002 62H55.24C55.462 62.0004 55.6778 61.9269 55.8535 61.7911C56.0291 61.6553 56.1545 61.4649 56.21 61.25C56.7387 59.2089 57.0042 57.1085 57 55C56.9942 48.3714 54.3584 42.0159 49.6713 37.3288C44.9841 32.6416 38.6286 30.0058 32 30ZM9.54002 60C8.40032 54.8283 9.07664 49.4218 11.4552 44.6902C13.8338 39.9585 17.7694 36.1905 22.6 34.02L25 36.41V39.59L21.29 43.29C21.1058 43.4807 21.002 43.7349 21 44V47.59L17.59 51H15C14.7348 51 14.4804 51.1054 14.2929 51.2929C14.1054 51.4804 14 51.7348 14 52V55C14.002 55.2651 14.1058 55.5193 14.29 55.71L18.59 60H9.54002ZM21 60C20.998 59.7349 20.8942 59.4807 20.71 59.29L16 54.59V53H18C18.2651 52.998 18.5193 52.8942 18.71 52.71L22.71 48.71C22.8942 48.5193 22.998 48.2651 23 48V44.41L26.71 40.71C26.8942 40.5193 26.998 40.2651 27 40V36C26.998 35.7349 26.8942 35.4807 26.71 35.29L24.63 33.22C26.368 32.6285 28.1711 32.2491 30 32.09V37C30.002 37.2651 30.1058 37.5193 30.29 37.71L34.29 41.71C34.4807 41.8942 34.7349 41.998 35 42H39.59L44 46.41V51.59L42.29 53.29C42.1058 53.4807 42.002 53.7349 42 54V58C42.002 58.2651 42.1058 58.5193 42.29 58.71L43.59 60H21ZM54.46 60H46.41L44 57.59V54.41L45.71 52.71C45.8942 52.5193 45.998 52.2651 46 52V46C45.998 45.7349 45.8942 45.4807 45.71 45.29L40.71 40.29C40.5193 40.1058 40.2651 40.002 40 40H35.41L32 36.59V32C35.4435 32.0061 38.8418 32.784 41.945 34.2764C45.0483 35.7688 47.7776 37.9378 49.9322 40.6239C52.0868 43.31 53.612 46.4448 54.3956 49.798C55.1791 53.1511 55.2011 56.6372 54.46 60Z" fill="black"/>
<path d="M38 45H32C31.7348 45 31.4804 45.1054 31.2929 45.2929C31.1054 45.4804 31 45.7348 31 46V48C31.002 48.2651 31.1058 48.5193 31.29 48.71L33 50.41V54C33 54.2652 33.1054 54.5196 33.2929 54.7071C33.4804 54.8946 33.7348 55 34 55H36C36.2651 54.998 36.5193 54.8942 36.71 54.71L38.71 52.71C38.8942 52.5193 38.998 52.2651 39 52V46C39 45.7348 38.8946 45.4804 38.7071 45.2929C38.5196 45.1054 38.2652 45 38 45ZM37 51.59L35.59 53H35V50C34.998 49.7349 34.8942 49.4807 34.71 49.29L33 47.59V47H37V51.59Z" fill="black"/>
</svg>
